HIERARCHY
ROOT hip
{
	OFFSET 0.000000 0.000000 0.000000 
	CHANNELS 6 Xposition Yposition Zposition Xrotation Zrotation Yrotation
	JOINT abdomen
	{
		OFFSET 0.000000 3.402643 0.000000 
		CHANNELS 3 Xrotation Zrotation Yrotation
		JOINT chest
		{
			OFFSET 0.000000 8.438565 -0.680529 
			CHANNELS 3 Xrotation Zrotation Yrotation
			JOINT neck
			{
				OFFSET 0.000000 10.207942 -0.272212 
				CHANNELS 3 Xrotation Zrotation Yrotation
				JOINT head
				{
					OFFSET 0.000000 3.130431 0.000000 
					CHANNELS 3 Xrotation Zrotation Yrotation
					End Site
					{
						OFFSET 0.000000 3.130435 0.000000 
					}
				}
			}
			JOINT lCollar
			{
				OFFSET 3.470700 6.669187 -0.816635 
				CHANNELS 3 Yrotation Zrotation Xrotation
				JOINT lShldr
				{
					OFFSET 3.198488 0.000000 0.000000 
					CHANNELS 3 Zrotation Yrotation Xrotation
					JOINT lForeArm
					{
						OFFSET 10.139888 0.000000 0.000000 
						CHANNELS 3 Yrotation Zrotation Xrotation
						JOINT lHand
						{
							OFFSET 8.370511 0.000000 0.000000 
							CHANNELS 3 Zrotation Yrotation Xrotation
							End Site
							{
								OFFSET 4.083176 0.000000 0.000000 
							}
						}
					}
				}
			}
			JOINT rCollar
			{
				OFFSET -3.470700 6.669187 -0.816635 
				CHANNELS 3 Yrotation Zrotation Xrotation
				JOINT rShldr
				{
					OFFSET -3.198488 0.000000 0.000000 
					CHANNELS 3 Zrotation Yrotation Xrotation
					JOINT rForeArm
					{
						OFFSET -10.139888 0.000000 0.000000 
						CHANNELS 3 Yrotation Zrotation Xrotation
						JOINT rHand
						{
							OFFSET -8.370511 0.000000 0.000000 
							CHANNELS 3 Zrotation Yrotation Xrotation
							End Site
							{
								OFFSET -4.083176 0.000000 0.000000 
							}
						}
					}
				}
			}
		}
	}
	JOINT lThigh
	{
		OFFSET 5.308129 -1.633274 1.361059 
		CHANNELS 3 Xrotation Zrotation Yrotation
		JOINT lShin
		{
			OFFSET -2.041588 -20.007561 0.000000 
			CHANNELS 3 Xrotation Zrotation Yrotation
			JOINT lFoot
			{
				OFFSET 0.000000 -19.190928 -1.224953 
				CHANNELS 3 Xrotation Yrotation Zrotation
				End Site
				{
					OFFSET 0.000000 -2.449906 4.627600 
				}
			}
		}
	}
	JOINT rThigh
	{
		OFFSET -5.308129 -1.633274 1.361059 
		CHANNELS 3 Xrotation Zrotation Yrotation
		JOINT rShin
		{
			OFFSET 2.041588 -20.007561 0.000000 
			CHANNELS 3 Xrotation Zrotation Yrotation
			JOINT rFoot
			{
				OFFSET 0.000000 -19.190928 -1.224953 
				CHANNELS 3 Xrotation Yrotation Zrotation
				End Site
				{
					OFFSET 0.000000 -2.449906 4.627600 
				}
			}
		}
	}
}
MOTION
Frames: 14
Frame Time: 0.033333
20.463779 43.600464 -48.196335 -2.646484 -2.470703 25.136461 21.933594 -0.810547 -7.578143 -12.441406 6.328125 -6.660156 -23.105469 -6.201171 -13.965900 26.416016 7.939454 -13.826778 18.623047 -13.945313 -0.036711 -72.246094 -41.972660 41.682919 -125.341797 0.644531 7.382813 19.580078 14.335938 5.019531 -7.431640 10.634766 -0.031099 47.119141 -5.634765 21.982420 113.525391 0.322266 -3.105469 -14.785155 1.621094 -0.517302 2.895727 24.504833 29.579233 44.209660 -0.619659 -2.841415 -26.684280 6.608949 -8.763043 -16.863802 -18.588465 -25.546911 37.719219 0.341811 2.261223 -19.194170 6.890772 14.413593 
19.676870 44.556046 -46.438869 -3.173828 -2.988281 24.423830 20.341797 -1.513672 -8.467054 -12.265626 8.085938 -7.353516 -18.779297 -5.869141 -12.774437 24.472658 7.949219 -12.469352 19.023438 -13.056642 -0.046622 -74.277344 -44.912109 39.638672 -128.652344 0.664063 7.685435 19.970705 14.248048 5.168420 -6.933594 8.691406 -0.187023 47.197262 -4.453125 19.619141 118.085938 0.400391 -3.252018 -16.894531 1.250000 -0.507598 3.774884 25.355623 27.307739 42.823895 -0.619340 -2.772680 -20.527987 11.480787 -7.655568 -13.884380 -15.069921 -25.683582 34.904896 0.698847 2.230325 -17.267282 6.578224 14.410289 
19.065722 45.729652 -44.831738 -3.876953 -3.173828 23.378906 19.804688 -2.216797 -9.345703 -12.080078 9.667969 -7.880859 -14.638672 -6.064453 -11.485407 23.417969 8.310547 -11.268120 19.423826 -12.509766 0.009766 -75.761719 -47.119137 37.265625 -131.093750 0.615234 7.910051 20.097656 15.058595 5.371093 -6.630859 6.552734 -0.136719 46.376953 -2.167969 14.784786 122.753906 0.595703 -5.869242 -13.017578 -0.361328 0.000000 5.574728 24.734682 26.296543 40.345703 -0.960881 -2.614372 -15.603552 14.520139 -7.586644 -10.701654 -13.039727 -26.850746 32.620659 0.673777 2.134220 -11.159019 9.842797 13.974558 
18.648924 46.816185 -43.591122 -4.755859 -2.646484 21.610876 20.322266 -2.304688 -9.726563 -12.431641 10.195313 -8.232423 -11.015625 -6.074219 -10.245173 22.714842 8.662109 -10.058594 19.599609 -12.011718 -0.126953 -76.572266 -49.228516 35.039059 -133.066406 0.634766 7.265517 19.833984 15.380858 5.539699 -6.474609 4.794922 -0.176598 44.912109 0.771484 9.072398 126.728516 0.957031 -10.048990 -14.072266 0.439453 -0.341797 6.023484 23.074911 25.977549 39.995537 -0.892552 -2.572795 -14.852639 6.948859 -10.330538 -9.853589 -13.319974 -28.148542 33.134289 0.502792 2.276170 -1.252892 15.409948 12.440496 
18.274401 47.590385 -42.654797 -5.634766 -2.285194 19.852825 21.904297 -1.923828 -9.814781 -13.134766 10.546876 -8.591962 -8.251953 -6.142579 -9.356514 22.539063 9.013671 -9.189452 19.814453 -11.621094 -0.058594 -76.914063 -50.498047 33.037109 -133.857422 0.537109 5.273345 21.562500 15.390624 6.008451 -6.660156 3.544922 -0.127557 42.382813 5.068359 3.565371 129.843750 1.308594 -14.306864 -17.763672 0.888672 -0.507813 5.522652 20.296888 25.709986 41.057644 -0.805116 -2.945716 -15.598151 -3.009062 -13.107167 -11.786029 -15.061001 -29.021196 37.712685 0.341733 2.435670 10.089891 20.217291 8.601425 
17.948425 47.974682 -41.826023 -6.689453 -2.119169 17.040245 24.199219 -1.699219 -9.228517 -14.013672 10.546875 -8.074385 -6.357422 -6.572266 -8.575336 23.076172 9.892579 -7.939454 19.853516 -10.898438 -0.134872 -76.386719 -50.634766 31.457293 -134.277344 0.214844 2.802698 24.345703 15.595702 6.936219 -7.031250 2.832031 -0.020014 39.287109 10.273437 -2.451172 132.021484 1.533203 -15.361588 -19.697266 0.400391 -0.331962 6.032892 17.654716 28.097441 41.755104 -0.736989 -2.597523 -16.972885 -10.180467 -15.381292 -15.291352 -16.478205 -27.251673 42.970203 0.048889 2.907167 15.549714 20.012510 6.561389 
17.679972 47.834633 -40.929832 -7.382812 -1.943359 13.173497 25.449219 -1.591797 -8.115234 -14.023438 9.843751 -6.845703 -4.970703 -5.429688 -8.018503 23.242188 9.189452 -7.410550 19.560547 -10.283202 -0.019532 -75.458977 -49.853516 30.217146 -133.945313 0.048828 1.328117 25.283203 16.162111 7.414829 -7.724610 3.027344 -0.136719 35.878910 15.957031 -8.307862 133.574219 1.357422 -15.361328 -22.333986 0.849609 -0.488281 6.000607 15.337226 29.925056 42.270065 -0.630013 -2.943244 -19.645187 -13.583992 -16.994186 -18.769136 -16.942467 -22.152309 43.522408 0.292856 2.334771 10.537868 14.096075 9.515398 
17.309053 47.238064 -39.910042 -7.568359 -2.470703 10.194891 25.986328 -1.132813 -6.933786 -13.320312 8.964844 -5.965275 -3.759766 -3.242188 -7.597656 22.890623 7.958983 -7.070312 19.257814 -9.179688 -0.115630 -74.121094 -48.183590 29.355467 -133.417969 0.166016 1.181612 24.355469 16.982420 7.522384 -8.417969 3.925781 -0.146484 32.656250 21.298826 -13.980828 134.580078 1.191406 -12.519734 -22.500000 -0.068359 -0.166016 5.017548 14.159087 28.975008 41.754612 -0.747126 -2.610851 -20.268623 -14.572919 -17.317854 -20.497553 -15.878155 -18.956644 37.357529 0.326133 2.259353 2.272986 8.989126 11.933006 
16.899216 46.171192 -38.916885 -7.382812 -3.349610 8.593179 26.162109 0.156250 -6.279297 -12.792968 7.558595 -5.604184 -3.232422 -0.585938 -7.587904 22.353518 6.728516 -6.912919 18.798828 -8.007812 -0.047468 -72.705078 -45.468750 29.573114 -133.046875 0.273438 2.802734 24.355469 16.982420 7.522384 -9.453125 5.166016 -0.048828 30.371096 26.103516 -19.224220 136.035156 1.220703 -12.148646 -21.289063 1.142578 -0.664063 2.607034 13.682215 25.900097 42.998539 -0.646669 -2.810835 -22.172871 -12.795657 -17.620375 -21.255552 -15.277526 -18.282715 28.757589 0.859289 1.822702 1.831986 7.756963 11.913691 
16.616982 44.563538 -37.966648 -7.382812 -3.173828 7.372506 26.875002 0.761719 -5.781107 -12.626954 5.273438 -5.439368 -2.207031 3.115234 -7.724608 20.048826 4.980468 -7.158203 17.978516 -6.669922 -0.037928 -71.425781 -41.884766 30.725903 -132.783203 0.605469 5.888672 23.300781 16.953125 7.041016 -10.283202 7.167968 -0.137937 29.453125 29.433594 -22.187498 137.773438 1.015625 -10.185719 -19.179689 1.230469 -0.498047 1.012747 11.897444 22.282068 48.425995 -0.495580 -3.010843 -31.351412 -4.983604 -15.408089 -24.070158 -17.203821 -21.983540 24.346958 0.976328 1.986085 8.655989 14.043992 9.926610 
16.344379 42.736511 -36.967731 -6.513672 -2.646484 5.439002 26.875002 0.683594 -5.439336 -12.460938 2.636719 -5.087851 -0.712891 8.066406 -7.871093 16.875000 2.353516 -7.255407 17.148436 -5.341797 0.000000 -70.507813 -37.167969 32.367149 -132.353516 0.908203 10.234376 22.099607 16.103516 6.357422 -10.908203 9.335938 -0.156250 31.562498 30.683598 -21.875000 140.166016 0.673828 -5.380859 -16.386719 2.031250 -0.849262 0.828628 10.259987 20.719843 52.284733 -0.164887 -3.226265 -41.471512 -0.415834 -12.823820 -29.518568 -19.838814 -25.456326 25.593908 0.869001 1.673729 13.282742 20.616257 7.530914 
15.935608 41.284683 -35.974834 -4.052734 -1.416016 2.626712 25.302734 -0.498047 -4.990319 -12.636719 0.527344 -4.394525 0.371094 13.007813 -8.005614 15.117186 -0.097656 -7.490234 16.298830 -4.394532 0.000748 -70.615234 -31.972658 33.369137 -130.449219 1.142578 13.984375 21.787107 13.964845 5.429687 -11.347656 11.503906 -0.197260 36.210938 29.121096 -16.352671 141.494141 0.117188 1.074198 -19.716797 5.263672 -2.001953 0.496305 8.578592 21.463556 53.689732 0.010233 -3.209556 -48.099312 1.934383 -10.728613 -35.269127 -20.823624 -26.008522 25.953272 1.034837 1.365849 16.186069 21.477530 6.049520 
15.270421 40.309708 -34.700504 -2.285156 -0.878906 1.044922 24.072268 -1.318359 -5.351787 -13.173827 -0.878906 -4.404447 1.416016 17.089842 -8.056641 13.183594 -1.503906 -7.548829 15.605470 -3.847656 -0.018876 -71.250000 -28.417969 33.227779 -126.367188 1.113281 12.851562 24.140623 13.369141 5.859375 -11.630858 13.300781 -0.099903 41.552738 24.169922 -7.495998 141.123047 -0.136719 2.568359 -24.287109 6.367188 -3.076172 0.651015 8.858993 22.542124 54.944805 0.000500 -3.108767 -50.519650 2.875092 -9.366420 -38.258862 -20.483732 -29.810148 28.230118 0.868983 1.799646 13.768602 20.084000 7.470055 
14.557213 39.720360 -32.945313 -1.943359 -0.712891 0.517457 23.359377 -1.250000 -6.425994 -12.998047 -1.582031 -5.458984 1.113281 19.267580 -7.692089 13.007813 -2.382813 -7.031655 15.253906 -3.671875 -0.097656 -72.187500 -28.828129 31.938650 -122.451180 0.390625 5.058588 28.330080 13.203125 6.974888 -11.406251 14.707033 -0.058594 45.458988 16.582031 3.332865 137.099609 0.048828 0.830070 -26.406248 7.451173 -3.826857 3.424996 9.732557 22.878181 55.296421 0.000602 -3.115686 -50.715160 3.387640 -9.065325 -38.112347 -20.832829 -37.456318 33.869751 0.859185 1.896147 -0.688910 15.473295 12.323779 
